<svg width="476" height="723" xmlns="http://www.w3.org/2000/svg" xmlns:xlink="http://www.w3.org/1999/xlink" xml:space="preserve" overflow="hidden"><defs><clipPath id="clip0"><rect x="984" y="735" width="476" height="723"/></clipPath></defs><g clip-path="url(#clip0)" transform="translate(-984 -735)"><path d="M986.562 783.559C985.012 773.809 991.659 764.649 1001.41 763.099L1072.02 751.871C1081.77 750.321 1090.93 756.968 1092.48 766.718L1152.94 1146.94C1154.49 1156.69 1147.84 1165.85 1138.09 1167.4L1067.48 1178.63C1057.73 1180.18 1048.57 1173.53 1047.02 1163.78Z" stroke="#FFFFFF" stroke-width="4.58333" stroke-miterlimit="8" fill-rule="evenodd"/><path d="M1222.85 752.314C1224.73 742.622 1234.11 736.288 1243.8 738.166L1313.99 751.768C1323.69 753.646 1330.02 763.026 1328.14 772.718L1254.9 1150.69C1253.02 1160.38 1243.64 1166.71 1233.95 1164.83L1163.76 1151.23C1154.06 1149.35 1147.73 1139.97 1149.61 1130.28Z" stroke="#FFFFFF" stroke-width="4.58333" stroke-miterlimit="8" fill-rule="evenodd"/><path d="M1034.5 1166.33C1034.5 1134.39 1060.39 1108.5 1092.33 1108.5L1347.67 1108.5C1379.61 1108.5 1405.5 1134.39 1405.5 1166.33L1405.5 1397.67C1405.5 1429.61 1379.61 1455.5 1347.67 1455.5L1092.33 1455.5C1060.39 1455.5 1034.5 1429.61 1034.5 1397.67Z" stroke="#000000" stroke-width="4.58333" stroke-miterlimit="8" fill-rule="evenodd"/><path d="M176 79.75C249.333-106.333 535.333 79.75 176 319-183.333 79.75 102.667-106.333 176 79.75Z" stroke="#000000" stroke-width="4.58333" stroke-miterlimit="8" fill-rule="evenodd" transform="matrix(0.806161 -0.591697 -0.591697 -0.806161 1088.24 1489.47)"/><path d="M1354.93 1107.08C1358.33 1097.81 1368.6 1093.05 1377.87 1096.45L1445 1121.06C1454.27 1124.45 1459.03 1134.72 1455.63 1143.99L1353.82 1421.77C1350.42 1431.04 1340.15 1435.8 1330.88 1432.4L1263.75 1407.8C1254.48 1404.4 1249.72 1394.13 1253.12 1384.86Z" stroke="#FFFFFF" stroke-width="4.58333" stroke-miterlimit="8" fill-rule="evenodd"/><path d="M1257.76 1085.43C1259.64 1075.74 1269.02 1069.41 1278.71 1071.29L1348.91 1084.89C1358.6 1086.77 1364.93 1096.15 1363.05 1105.84L1310.74 1375.82C1308.86 1385.51 1299.48 1391.84 1289.79 1389.96L1219.59 1376.36C1209.9 1374.48 1203.57 1365.1 1205.45 1355.41Z" stroke="#FFFFFF" stroke-width="4.58333" stroke-miterlimit="8" fill-rule="evenodd"/><path d="M1325.67 1142.5C1335.52 1142.5 1343.5 1150.48 1343.5 1160.33L1343.5 1231.67C1343.5 1241.52 1335.52 1249.5 1325.67 1249.5L1050.33 1249.5C1040.48 1249.5 1032.5 1241.52 1032.5 1231.67L1032.5 1160.33C1032.5 1150.48 1040.48 1142.5 1050.33 1142.5Z" stroke="#FFFFFF" stroke-width="4.58333" stroke-miterlimit="8" fill-rule="evenodd"/></g></svg>