<svg width="500" height="252" fill='none' xmlns="http://www.w3.org/2000/svg" xmlns:xlink="http://www.w3.org/1999/xlink" xml:space="preserve" overflow="hidden"><defs><clipPath id="clip0">
<rect x="0" y="0" width="500" height="252"/></clipPath><clipPath id="clip1">
<path d="M152.12-50.0946 469.88 7.85855 430.766 222.322 113.005 164.369Z"/></clipPath><clipPath id="clip2"><path d="M152.12-50.0946 469.88 7.85855 430.766 222.322 113.005 164.369Z"/></clipPath><clipPath id="clip3"><path d="M152.12-50.0946 469.88 7.85855 430.766 222.322 113.005 164.369Z"/></clipPath><clipPath id="clip4"><path d="M152.12-50.0946 469.88 7.85855 430.766 222.322 113.005 164.369Z"/></clipPath><clipPath id="clip5"><path d="M152.12-50.0946 469.88 7.85855 430.766 222.322 113.005 164.369Z"/></clipPath><clipPath id="clip6"><path d="M152.12-50.0946 469.88 7.85855 430.766 222.322 113.005 164.369Z"/></clipPath><clipPath id="clip7"><rect x="437" y="19" width="23" height="24"/></clipPath><clipPath id="clip8"><path d="M152.12-50.0946 469.88 7.85855 430.766 222.322 113.005 164.369Z"/></clipPath><clipPath id="clip9"><path d="M152.12-50.0946 469.88 7.85855 430.766 222.322 113.005 164.369Z"/></clipPath><clipPath id="clip10"><path d="M152.12-50.0946 469.88 7.85855 430.766 222.322 113.005 164.369Z"/></clipPath><clipPath id="clip11"><path d="M152.12-50.0946 469.88 7.85855 430.766 222.322 113.005 164.369Z"/></clipPath><clipPath id="clip12"><rect x="112" y="1" width="359" height="171"/></clipPath><clipPath id="clip13"><path d="M152.12-50.0946 469.88 7.85855 430.766 222.322 113.005 164.369Z"/></clipPath><clipPath id="clip14"><path d="M152.12-50.0946 469.88 7.85855 430.766 222.322 113.005 164.369Z"/></clipPath></defs><g clip-path="url(#clip0)"><path d="M-50-159.605 550-159.605 550 440.395-50 440.395Z" fill="none"/><path d="M-50-159.605 550-159.605 550 440.395-50 440.395Z" fill="none"/><path d="M-50-159.605 550-159.605 550 440.395-50 440.395Z" fill="none"/><path d="M94.3184 147.699C82.0164 147.199 69.2768 147.231 56.8393 147.668 64.9382 138.288 73.0736 129.215 81.0059 120.538 81.2403 120.34 81.3445 120.038 81.3445 119.731 81.3445 119.059 80.808 118.522 80.1309 118.522 79.7976 118.522 79.4591 118.658 79.2611 118.929 70.2507 128.673 61.6778 138.324 53.5424 147.804 40.032 148.371 26.8184 149.449 14.9174 150.96 14.3132 151.028 13.8445 151.569 13.8445 152.173 13.8445 152.845 14.3809 153.382 15.0528 153.382L15.2195 153.382C26.3497 151.939 38.683 150.897 51.4278 150.324 32.5007 172.611 14.1778 196.309-0.238857 219.137-0.509693 219.538-0.744068 219.976-0.879482 220.345L-0.879482 220.377C-1.24928 221.486-0.811775 222.194 0.261143 222.194 1.03718 222.194 2.01114 221.288 3.02156 219.606 3.28718 219.101 3.35489 218.632 3.15177 218.33 17.6778 195.673 35.9278 172.205 54.7195 150.189 68.1309 149.616 81.5789 149.616 94.2195 150.121L94.2872 150.121C94.9591 150.121 95.4955 149.585 95.4955 148.913 95.4955 148.272 94.9903 147.736 94.3184 147.699Z" fill="#5B5757"/><path d="M57.1021 199.939C66.4146 199.939 92.9407 182.762 108.133 171.736 108.435 171.533 108.639 171.163 108.639 170.762 108.639 170.09 108.097 169.554 107.425 169.554 107.159 169.554 106.92 169.621 106.722 169.788 91.5604 180.746 65.675 197.517 57.1021 197.517 55.5917 197.517 55.0865 197.048 55.0865 195.637 55.0865 191.335 62.6854 183.871 70.149 176.512 76.7375 170.022 83.2896 163.569 83.2896 159.736 83.2896 158.288 81.9771 157.147 80.3 155.637 79.7948 155.231 79.2584 154.762 78.7532 154.257 85.0032 147.569 88.7011 142.423 88.7011 140.34 88.7011 138.996 87.9302 138.189 86.6177 138.189 81.7115 138.189 70.9875 146.423 70.9875 150.257 70.9875 151.569 71.9979 152.642 75.0865 154.694 70.0448 159.939 63.8938 165.554 57.8781 169.788 57.5396 170.022 57.3417 170.392 57.3417 170.793 57.3417 171.465 57.8781 172.007 58.55 172.007 58.8209 172.007 59.0552 171.939 59.2532 171.772 64.7688 167.871 71.4563 161.788 77.0709 156.007 79.8261 157.856 80.8677 158.861 80.8677 159.736 80.8677 162.528 75.0188 168.309 68.4302 174.793 60.9719 182.158 52.6646 190.324 52.6646 195.637 52.6646 198.392 54.2479 199.939 57.1021 199.939ZM76.7375 152.913C74.5865 151.465 73.4094 150.491 73.4094 150.257 73.4094 148.069 81.9459 141.517 85.4407 140.778 85.8782 140.71 86.149 140.877 86.0136 141.283 85.1073 143.465 79.9302 149.517 76.7375 152.913Z" fill="#5B5757"/><path d="M114.984 163.97C115.354 163.97 115.723 163.804 115.958 163.502 116.062 163.335 116.26 163.095 116.463 162.793 116.968 162.158 117.572 161.314 117.874 160.981 118.041 160.746 118.145 160.476 118.145 160.205 118.145 159.533 117.604 158.996 116.932 158.996 116.562 158.996 116.229 159.163 115.994 159.434L114.041 162.022C113.874 162.226 113.775 162.491 113.775 162.762 113.775 163.434 114.312 163.97 114.984 163.97ZM105.234 184.408C110.343 184.408 126.479 176.949 134.614 171.804 134.952 171.601 135.187 171.163 135.187 170.762 135.187 170.121 134.614 169.554 133.979 169.554 133.775 169.554 133.572 169.621 133.338 169.72 125.301 174.793 109.807 181.991 105.234 181.991 103.723 181.991 103.15 181.449 103.15 180.142 103.15 178.09 106.682 173.08 111.822 167.804L111.859 167.772C112.057 167.533 112.161 167.267 112.161 166.965 112.161 166.324 111.588 165.752 110.947 165.752 110.614 165.752 110.312 165.887 110.077 166.121 104.161 172.241 100.729 177.351 100.729 180.142 100.729 182.83 102.411 184.408 105.234 184.408Z" fill="#5B5757"/><path d="M174.346 169.554C174.112 169.554 173.841 169.653 173.638 169.788 166.242 174.694 155.924 176.408 147.487 177.418 151.32 174.361 153.706 171.163 153.706 168.981 153.706 167.502 152.596 166.559 150.914 166.559 145.299 166.559 134.643 174.054 124.492 185.184L119.586 190.965C129.065 179.033 136.529 169.653 144.93 159.267L144.898 159.298C145.065 159.132 145.2 158.793 145.2 158.528 145.2 157.887 144.627 157.314 143.992 157.314 143.622 157.314 143.216 157.517 143.049 157.788 123.685 181.752 109.133 200.444 98.5441 214.194 80.1535 235.335 72.4243 245.726 75.9504 245.726 77.6014 245.726 81.1952 240.814 91.6535 227.168L96.3254 221.048C97.5337 219.507 98.7785 217.856 100.091 216.142 107.081 208.142 115.721 198.361 126.242 186.866 135.82 176.408 146.075 168.913 150.716 168.913 151.117 168.913 151.284 169.048 151.284 169.351 151.284 170.996 147.419 174.897 142.544 177.955 135.82 178.022 134.341 179.366 134.341 180.746 134.341 181.621 135.081 182.158 136.226 182.158 137.841 182.158 140.091 181.351 143.351 180.309 152.258 179.366 165.742 177.955 175.018 171.772 175.351 171.533 175.555 171.163 175.555 170.762 175.555 170.121 174.982 169.554 174.346 169.554Z" fill="#5B5757"/><path d="M214.375 169.554C214.208 169.554 214.073 169.585 213.974 169.621 209.401 171.163 204.021 172.71 198.745 174.257 194.541 175.434 190.406 176.679 186.88 177.788 186.948 177.554 186.979 177.283 187.015 177.08 187.146 175.569 185.968 174.694 183.922 174.694 182.677 174.694 180.995 174.965 179.38 175.231 177.635 175.533 175.953 175.804 174.609 175.804 173.432 175.804 173.031 175.637 173.031 175.132 173.031 172.173 180.896 166.226 185.166 166.226 185.536 166.226 185.838 166.324 185.838 166.595 185.838 167.465 184.661 169.08 183.515 169.752 183.146 169.955 182.911 170.356 182.911 170.793 182.911 171.465 183.448 172.007 184.12 172.007 184.323 172.007 184.557 171.939 184.76 171.835 186.276 170.929 187.718 168.981 188.187 167.163 188.224 166.996 188.255 166.694 188.255 166.46 188.255 164.845 187.047 163.804 185.166 163.804 179.448 163.804 170.609 170.793 170.609 175.366 170.609 177.215 172.052 178.226 174.609 178.226 176.12 178.226 178.036 177.923 179.786 177.621 182.005 177.252 184.39 176.679 184.661 177.147 184.797 177.382 184.359 178.09 183.922 178.731L183.718 178.861C173.901 182.293 167.312 186.022 167.312 188.543 167.312 189.955 168.422 190.83 170.271 190.83 175.416 190.83 182.104 185.387 185.229 180.981 185.265 180.913 185.333 180.882 185.432 180.814 189.401 179.502 194.307 178.09 199.416 176.58 204.692 175.033 210.14 173.449 214.745 171.903 215.25 171.772 215.588 171.298 215.588 170.762 215.588 170.09 215.047 169.554 214.375 169.554ZM170.745 188.408C170.406 188.408 170.239 188.309 170.239 188.173 170.239 188.007 170.406 187.804 170.677 187.637 172.489 186.361 176.692 184.21 180.995 182.429 177.432 186.022 173.229 188.408 170.745 188.408Z" fill="#5B5757"/><path d="M300.556 169.554C300.321 169.554 300.118 169.621 299.952 169.752 296.524 171.705 293.597 172.377 288.321 172.377 281.764 172.377 276.722 169.517 274.306 168.038 274.238 168.007 274.269 168.038 274.269 167.97 274.306 167.705 274.306 167.434 274.306 167.199 274.306 165.382 273.566 164.309 272.254 164.309 271.04 164.309 270.202 165.147 270.202 166.324 270.202 167.199 270.707 168.241 271.545 169.012 271.613 169.08 271.613 169.08 271.582 169.147 269.764 175.533 261.228 185.116 257.327 185.116 257.061 185.116 256.926 184.882 256.926 184.278 256.926 182.392 258.134 178.663 259.681 175.871 259.983 175.231 259.847 174.627 259.274 174.189L259.212 174.158C258.603 173.788 258.035 173.887 257.561 174.392 253.899 178.595 241.728 188.647 237.967 188.647 237.394 188.647 237.123 188.408 237.123 187.939 237.123 184.512 247.04 172.038 253.092 168.241 253.426 168.038 253.696 167.637 253.696 167.199 253.696 166.559 253.123 165.986 252.488 165.986 252.285 165.986 252.082 166.054 251.847 166.158 245.629 170.054 234.702 183.366 234.702 188.543 234.702 190.127 235.712 191.064 237.462 191.064 241.16 191.064 248.858 185.554 254.301 180.882 254.806 180.476 255.108 180.679 254.941 181.283 254.67 182.392 254.504 183.47 254.504 184.278 254.504 186.361 255.514 187.538 257.327 187.538 262.436 187.538 271.311 177.653 273.733 170.491 276.42 172.142 281.696 174.793 288.321 174.793 293.936 174.793 297.363 174.022 301.16 171.835 301.53 171.601 301.769 171.199 301.769 170.762 301.769 170.121 301.196 169.554 300.556 169.554Z" fill="#5B5757"/><path d="M308.181 163.97C308.551 163.97 308.921 163.804 309.155 163.502 309.259 163.335 309.457 163.095 309.66 162.793 310.165 162.158 310.77 161.314 311.072 160.981 311.238 160.746 311.342 160.476 311.342 160.205 311.342 159.533 310.801 158.996 310.129 158.996 309.759 158.996 309.426 159.163 309.191 159.434L307.238 162.022C307.072 162.226 306.973 162.491 306.973 162.762 306.973 163.434 307.509 163.97 308.181 163.97ZM298.431 184.408C303.54 184.408 319.676 176.949 327.811 171.804 328.15 171.601 328.384 171.163 328.384 170.762 328.384 170.121 327.811 169.554 327.176 169.554 326.973 169.554 326.77 169.621 326.535 169.72 318.499 174.793 303.004 181.991 298.431 181.991 296.921 181.991 296.348 181.449 296.348 180.142 296.348 178.09 299.879 173.08 305.02 167.804L305.056 167.772C305.254 167.533 305.358 167.267 305.358 166.965 305.358 166.324 304.785 165.752 304.145 165.752 303.811 165.752 303.509 165.887 303.275 166.121 297.358 172.241 293.926 177.351 293.926 180.142 293.926 182.83 295.608 184.408 298.431 184.408Z" fill="#5B5757"/><path d="M385.627 147.699C373.325 147.199 360.585 147.231 348.148 147.668 356.247 138.288 364.382 129.215 372.314 120.538 372.549 120.34 372.653 120.038 372.653 119.731 372.653 119.059 372.116 118.522 371.439 118.522 371.106 118.522 370.767 118.658 370.57 118.929 361.559 128.673 352.986 138.324 344.851 147.804 331.34 148.371 318.127 149.449 306.226 150.96 305.622 151.028 305.153 151.569 305.153 152.173 305.153 152.845 305.689 153.382 306.361 153.382L306.528 153.382C317.658 151.939 329.991 150.897 342.736 150.324 323.809 172.611 305.486 196.309 291.07 219.137 290.799 219.538 290.564 219.976 290.429 220.345L290.429 220.377C290.059 221.486 290.497 222.194 291.57 222.194 292.346 222.194 293.32 221.288 294.33 219.606 294.596 219.101 294.663 218.632 294.46 218.33 308.986 195.673 327.236 172.205 346.028 150.189 359.439 149.616 372.887 149.616 385.528 150.121L385.596 150.121C386.267 150.121 386.804 149.585 386.804 148.913 386.804 148.272 386.299 147.736 385.627 147.699Z" fill="#5B5757"/><path d="M398.062 169.554C397.858 169.554 397.66 169.621 397.426 169.72 389.556 174.793 375.004 181.856 368.416 181.856 366.327 181.856 365.421 181.147 365.421 179.569 365.421 178.324 366.062 176.746 366.765 174.929 367.473 173.147 368.28 171.199 368.28 169.585 368.28 168.038 367.338 167.033 365.827 167.033 362.629 167.033 356.718 171.163 347.64 179.736 344.983 182.257 342.463 184.71 340.515 186.627 340.041 187.101 339.707 187.064 340.176 186.361 342.327 182.83 345.994 177.788 350.9 171.569 383.473 150.996 414.129 116.272 414.129 108.403 414.129 106.621 413.056 105.616 411.171 105.616 402.567 105.616 335.603 181.418 335.603 191.101 335.603 191.976 336.275 192.647 337.15 192.647 337.858 192.647 338.53 192.007 342.192 188.34 342.598 187.939 343.035 187.538 343.504 187.101 345.218 185.418 347.202 183.502 349.322 181.486 356.718 174.491 362.327 170.226 365.155 169.554 365.588 169.449 365.858 169.72 365.791 170.189 365.624 171.298 365.119 172.574 364.546 173.991 363.843 175.804 362.999 177.856 362.999 179.569 362.999 182.528 365.02 184.278 368.416 184.278 375.541 184.278 390.702 176.949 398.733 171.772 399.072 171.533 399.275 171.163 399.275 170.762 399.275 170.121 398.702 169.554 398.062 169.554ZM411.171 108.033C411.577 108.033 411.713 108.168 411.713 108.507 411.713 114.861 385.624 144.809 355.843 165.418 378.733 137.382 407.004 108.033 411.171 108.033Z" fill="#5B5757"/><path d="M475.101 134.824C466.695 134.824 453.986 145.012 448.981 151.397 448.809 151.601 448.71 151.871 448.71 152.137 448.71 152.809 449.247 153.351 449.919 153.351 450.288 153.351 450.658 153.179 450.861 152.877 455.736 146.725 467.57 137.246 475.101 137.246 476.981 137.246 477.721 137.918 477.486 139.434 475.872 148.475 448.007 172.778 433.08 179.736 432.242 179.601 431.434 179.533 430.658 179.533 426.96 179.533 424.137 180.543 423.903 182.09 423.736 183.298 424.877 184.038 426.757 184.038 428.408 184.074 430.627 183.47 433.382 182.226 434.893 182.528 436.439 182.965 438.122 183.47 441.111 184.377 444.439 185.351 447.903 185.351 453.856 185.351 457.45 184.476 460.846 182.226 461.184 182.022 461.382 181.621 461.382 181.215 461.382 180.543 460.846 180.007 460.174 180.007 459.939 180.007 459.705 180.074 459.502 180.21 456.507 182.226 453.45 182.929 447.903 182.929 444.778 182.929 441.82 182.059 438.83 181.147 438.122 180.949 437.45 180.778 436.778 180.58 452.846 171.903 478.189 149.246 479.84 139.835 480.377 136.809 478.492 134.824 475.101 134.824Z" fill="#5B5757"/><g><g clip-path="url(#clip1)"><g clip-path="url(#clip2)"><path d="M118.318 148.958C118.078 148.916 117.958 148.645 118.005 148.4L118.385 147.218C118.432 146.978 118.703 146.859 118.927 146.984 119.172 147.03 119.286 147.301 119.167 147.53L118.781 148.708C118.75 148.869 118.562 149.004 118.318 148.958Z" fill="#0E0E0E"/></g></g></g><g><g clip-path="url(#clip3)"><g clip-path="url(#clip4)"><path d="M119.547 145.431C119.24 145.291 119.188 145.114 119.229 144.869 119.542 144.093 119.766 143.301 120.078 142.525 120.12 142.28 120.391 142.166 120.62 142.291 120.865 142.333 120.979 142.603 120.854 142.833 120.547 143.609 120.318 144.4 120.01 145.181 119.964 145.421 119.792 145.473 119.547 145.431ZM121.224 140.812C120.917 140.676 120.865 140.499 120.906 140.254 121.219 139.478 121.526 138.702 121.833 137.921 121.958 137.697 122.135 137.645 122.375 137.687 122.604 137.812 122.656 137.989 122.609 138.234 122.302 139.01 121.995 139.786 121.698 140.484 121.641 140.806 121.464 140.859 121.224 140.812ZM123.062 136.228C123.062 136.228 122.979 136.213 122.979 136.213 122.75 136.088 122.703 135.911 122.745 135.671 123.052 134.89 123.365 134.114 123.656 133.416 123.781 133.192 123.958 133.14 124.198 133.181 124.427 133.306 124.479 133.484 124.432 133.723 124.125 134.504 123.818 135.28 123.521 135.978 123.396 136.208 123.224 136.26 123.062 136.228ZM124.885 131.723C124.885 131.723 124.802 131.708 124.802 131.708 124.573 131.583 124.521 131.405 124.568 131.166 124.875 130.385 125.266 129.624 125.557 128.926 125.682 128.697 125.859 128.645 126.104 128.692 126.328 128.817 126.38 128.994 126.339 129.234 126.031 130.015 125.656 130.697 125.344 131.473 125.318 131.635 125.125 131.765 124.885 131.723ZM126.88 127.166C126.88 127.166 126.802 127.15 126.802 127.15 126.573 127.025 126.521 126.848 126.568 126.609 126.875 125.827 127.25 125.145 127.641 124.385 127.766 124.155 127.943 124.103 128.182 124.15 128.411 124.275 128.464 124.452 128.417 124.692 128.026 125.458 127.734 126.155 127.344 126.916 127.302 127.161 127.125 127.208 126.88 127.166ZM129.026 122.718C129.026 122.718 128.948 122.702 128.948 122.702 128.719 122.577 128.682 122.322 128.792 122.176 129.182 121.411 129.557 120.728 129.948 119.968 130.073 119.739 130.328 119.702 130.474 119.812 130.703 119.937 130.74 120.197 130.63 120.343 130.24 121.103 129.865 121.786 129.557 122.567 129.365 122.697 129.188 122.749 129.026 122.718ZM131.318 118.385C131.24 118.369 131.24 118.369 131.156 118.353 130.932 118.228 130.896 117.973 131.005 117.827 131.396 117.062 131.771 116.379 132.156 115.614 132.281 115.39 132.542 115.353 132.688 115.463 132.911 115.588 132.948 115.843 132.839 115.989 132.464 116.671 132.078 117.437 131.703 118.119 131.672 118.28 131.479 118.411 131.318 118.385ZM133.693 114.062C133.615 114.046 133.615 114.046 133.531 114.03 133.302 113.905 133.266 113.65 133.375 113.504 133.75 112.822 134.224 112.072 134.599 111.39 134.724 111.161 134.979 111.124 135.125 111.239 135.354 111.364 135.391 111.619 135.281 111.765 134.823 112.431 134.432 113.197 134.057 113.879 134.031 114.041 133.854 114.093 133.693 114.062ZM136.214 109.848C136.13 109.833 136.13 109.833 136.052 109.822 135.823 109.697 135.786 109.437 135.911 109.213 136.37 108.541 136.839 107.796 137.214 107.114 137.339 106.885 137.594 106.848 137.823 106.973 138.047 107.098 138.083 107.353 137.958 107.583 137.505 108.249 137.052 108.916 136.661 109.681 136.562 109.749 136.375 109.879 136.214 109.848ZM138.896 105.666C138.812 105.655 138.812 105.655 138.734 105.64 138.505 105.515 138.469 105.254 138.594 105.03 139.047 104.364 139.505 103.692 139.958 103.025 140.068 102.879 140.344 102.765 140.552 102.968 140.703 103.077 140.818 103.348 140.615 103.562 140.156 104.228 139.703 104.9 139.245 105.567 139.229 105.645 139.057 105.697 138.896 105.666ZM141.786 101.692C141.708 101.676 141.708 101.676 141.641 101.583 141.495 101.473 141.458 101.213 141.583 100.989 142.036 100.317 142.573 99.6658 143.109 99.0148 143.219 98.869 143.479 98.8325 143.703 98.9575 143.854 99.0669 143.891 99.3221 143.766 99.5513 143.229 100.202 142.771 100.869 142.234 101.525 142.047 101.655 141.948 101.723 141.786 101.692ZM232.562 116.244C232.318 116.202 232.188 116.01 232.229 115.765 232.276 115.525 232.464 115.395 232.708 115.437 233.031 115.494 233.37 115.473 233.693 115.536 234.193 115.541 234.594 115.614 235.094 115.624 235.333 115.666 235.484 115.775 235.521 116.036 235.474 116.275 235.365 116.421 235.109 116.458 234.609 116.452 234.109 116.442 233.625 116.353 233.286 116.379 232.885 116.301 232.562 116.244ZM230.141 115.801C229.344 115.577 228.474 115.333 227.693 115.025 227.453 114.978 227.333 114.708 227.458 114.478 227.505 114.239 227.776 114.119 228.005 114.244 228.781 114.556 229.573 114.78 230.286 114.994 230.526 115.041 230.646 115.312 230.615 115.473 230.573 115.713 230.38 115.848 230.141 115.801ZM225.521 114.129C225.521 114.129 225.443 114.114 225.443 114.114 224.677 113.723 223.995 113.348 223.25 112.879 223.021 112.754 222.984 112.494 223.094 112.348 223.219 112.124 223.474 112.088 223.625 112.197 224.292 112.65 225.052 113.041 225.75 113.333 225.979 113.458 226.016 113.718 225.906 113.864 225.875 114.025 225.682 114.155 225.521 114.129ZM237.469 116.306C237.307 116.275 237.161 116.166 237.109 115.989 237.073 115.734 237.266 115.603 237.443 115.551 238.214 115.442 239 115.249 239.781 115.062 240.042 115.025 240.188 115.135 240.318 115.322 240.354 115.583 240.245 115.728 240.052 115.859 239.271 116.051 238.401 116.223 237.552 116.322 237.552 116.322 237.469 116.306 237.469 116.306ZM144.75 97.8117C144.667 97.7961 144.589 97.7804 144.599 97.7023 144.453 97.5877 144.417 97.3325 144.542 97.1033 145.078 96.4523 145.615 95.8013 146.135 95.2283 146.245 95.0825 146.505 95.0461 146.729 95.1711 146.88 95.2804 146.917 95.5356 146.792 95.7648 146.255 96.4158 145.734 96.9888 145.198 97.6398 145.083 97.7908 144.911 97.8377 144.75 97.8117ZM221.323 111.525C221.245 111.51 221.161 111.499 221.177 111.416 220.526 110.879 219.859 110.426 219.219 109.806 219.073 109.697 219.052 109.359 219.161 109.213 219.271 109.067 219.609 109.046 219.755 109.155 220.328 109.676 220.979 110.213 221.651 110.666 221.797 110.78 221.833 111.036 221.708 111.265 221.661 111.504 221.484 111.556 221.323 111.525ZM242.214 115.004C242.052 114.973 241.984 114.879 241.922 114.78 241.87 114.603 241.911 114.364 242.182 114.244 242.901 113.963 243.635 113.593 244.37 113.228 244.562 113.093 244.792 113.218 244.922 113.411 245.052 113.603 244.927 113.827 244.74 113.963 244.005 114.327 243.271 114.692 242.453 115.046 242.375 115.03 242.292 115.015 242.214 115.004ZM217.677 108.192C217.599 108.176 217.516 108.161 217.453 108.067 216.896 107.463 216.339 106.864 215.792 106.181 215.661 105.989 215.708 105.749 215.896 105.614 216.089 105.484 216.328 105.525 216.464 105.718 216.922 106.385 217.479 106.989 218.042 107.593 218.172 107.78 218.208 108.041 218.016 108.171 217.922 108.239 217.76 108.208 217.677 108.192ZM246.552 112.708C246.474 112.692 246.391 112.676 246.323 112.583 246.193 112.39 246.234 112.15 246.427 112.015 247.094 111.556 247.698 110.999 248.286 110.52 248.474 110.39 248.734 110.353 248.865 110.546 248.995 110.734 249.036 110.989 248.844 111.124 248.24 111.681 247.557 112.223 246.891 112.687 246.729 112.655 246.635 112.723 246.552 112.708ZM148.016 94.0669C147.938 94.0565 147.854 94.0408 147.786 93.9419 147.641 93.8325 147.62 93.4992 147.729 93.3481 148.266 92.6971 148.87 92.1398 149.406 91.4888 149.594 91.3533 149.854 91.3169 149.984 91.5096 150.115 91.7023 150.151 91.9575 149.964 92.0877 149.443 92.6606 148.823 93.3013 148.302 93.869 148.271 94.0304 148.099 94.0825 148.016 94.0669ZM214.62 104.379C214.542 104.369 214.391 104.254 214.328 104.161 214.062 103.78 213.812 103.317 213.562 102.853 213.365 102.567 213.25 102.296 213.052 102.01 212.917 101.817 213.042 101.593 213.234 101.458 213.427 101.327 213.651 101.452 213.786 101.645 213.901 101.916 214.099 102.202 214.297 102.489 214.562 102.869 214.812 103.333 215.078 103.713 215.208 103.905 215.161 104.145 214.974 104.28 214.797 104.333 214.703 104.395 214.62 104.379ZM250.099 109.265C250.021 109.254 249.938 109.239 249.953 109.155 249.807 109.046 249.771 108.791 249.896 108.562 250.432 107.911 250.885 107.244 251.26 106.562 251.385 106.333 251.641 106.296 251.786 106.405 252.016 106.53 252.052 106.786 251.943 106.937 251.552 107.697 251.099 108.364 250.562 109.02 250.422 109.327 250.26 109.296 250.099 109.265ZM151.349 90.4211C151.271 90.4106 151.188 90.395 151.125 90.2961 150.99 90.1086 150.953 89.8533 151.146 89.7179 151.75 89.1606 152.281 88.5096 152.885 87.9523 153.078 87.8169 153.333 87.7804 153.464 87.9731 153.599 88.1658 153.635 88.4211 153.443 88.5513 152.839 89.1086 152.24 89.6658 151.719 90.2388 151.609 90.3846 151.51 90.4523 151.349 90.4211ZM212.229 100.109C212.068 100.077 212 99.9836 211.938 99.8898 211.568 99.1554 211.297 98.3533 210.948 97.5408 210.896 97.3638 210.938 97.119 211.214 97.0044 211.385 96.9523 211.63 96.994 211.745 97.27 212.016 98.0669 212.385 98.8013 212.672 99.52 212.802 99.7127 212.677 99.9419 212.484 100.072 212.406 100.056 212.312 100.124 212.229 100.109ZM252.536 105.041C252.458 105.025 252.458 105.025 252.536 105.041 252.229 104.9 252.177 104.723 252.224 104.484 252.365 104.176 252.422 103.853 252.562 103.546 252.729 103.072 252.802 102.671 252.891 102.187 252.938 101.942 253.125 101.812 253.37 101.859 253.609 101.9 253.745 102.093 253.698 102.333 253.609 102.817 253.521 103.301 253.354 103.77 253.297 104.093 253.141 104.484 253 104.791 252.891 104.937 252.698 105.072 252.536 105.041ZM154.896 86.9836C154.818 86.9679 154.734 86.9523 154.672 86.8586 154.536 86.6658 154.5 86.4106 154.693 86.2804 155.297 85.7231 155.896 85.1658 156.578 84.619 156.771 84.4888 157.01 84.5356 157.161 84.645 157.292 84.8325 157.328 85.0929 157.135 85.2231 156.536 85.7804 155.932 86.3377 155.328 86.895 155.141 87.0252 155.057 87.0148 154.896 86.9836ZM210.495 95.4523C210.333 95.4263 210.182 95.3169 210.214 95.1554 210.026 94.369 209.75 93.5669 209.578 92.7023 209.542 92.4471 209.651 92.2961 209.922 92.1815 210.177 92.145 210.328 92.2544 210.443 92.5252 210.635 93.3117 210.823 94.0981 211.016 94.8846 211.068 95.0565 210.943 95.2856 210.75 95.4158 210.573 95.4679 210.573 95.4679 210.495 95.4523ZM158.641 83.8273C158.562 83.8169 158.479 83.8013 158.417 83.7023 158.281 83.5148 158.328 83.27 158.438 83.1242 159.042 82.5669 159.708 82.1033 160.391 81.5617 160.583 81.4315 160.823 81.4731 160.953 81.6658 161.089 81.8586 161.042 82.0981 160.854 82.2283 160.182 82.6919 159.583 83.2492 158.901 83.7908 158.901 83.7908 158.724 83.8429 158.641 83.8273ZM253.422 100.197C253.26 100.166 253.047 99.9627 253.078 99.8013 253.13 99.0617 253.115 98.2231 253.021 97.3742 252.984 97.1138 253.172 96.9836 253.349 96.9315 253.609 96.895 253.74 97.0877 253.792 97.2596 253.885 98.1138 253.901 98.9523 253.911 99.7856 253.948 100.046 253.745 100.254 253.422 100.197 253.5 100.213 253.422 100.197 253.422 100.197ZM209.448 90.6763C209.286 90.645 209.135 90.5356 209.089 90.3586 208.99 89.5096 208.88 88.7388 208.786 87.8846 208.75 87.6294 208.943 87.4992 209.198 87.4627 209.453 87.4263 209.589 87.6138 209.625 87.8742 209.635 88.7075 209.745 89.4783 209.859 90.2492 209.896 90.5096 209.703 90.6398 209.526 90.6919 209.542 90.6086 209.448 90.6763 209.448 90.6763ZM162.536 80.7856C162.453 80.77 162.375 80.7544 162.307 80.6606 162.177 80.4679 162.219 80.2283 162.411 80.0981 163.078 79.6346 163.76 79.0929 164.427 78.6294 164.62 78.4992 164.865 78.5408 164.995 78.7336 165.125 78.9211 165.083 79.1658 164.891 79.2961 164.224 79.7596 163.557 80.2231 162.87 80.7648 162.708 80.7336 162.615 80.8013 162.536 80.7856ZM252.969 95.3586C252.807 95.3325 252.661 95.2231 252.609 95.0461 252.417 94.2596 252.229 93.4731 251.943 92.7544 251.891 92.5773 251.938 92.3377 252.208 92.2179 252.385 92.1658 252.625 92.2127 252.745 92.4836 253.016 93.2856 253.286 94.0825 253.474 94.869 253.51 95.1242 253.401 95.2752 253.13 95.3898 253.052 95.3742 252.969 95.3586 252.969 95.3586ZM209.104 85.6919C208.943 85.6606 208.812 85.4731 208.76 85.2961 208.745 84.4575 208.729 83.6242 208.797 82.8013 208.839 82.5565 209.031 82.4263 209.208 82.3742 209.448 82.4211 209.583 82.6086 209.635 82.7856 209.568 83.6086 209.583 84.4471 209.609 85.2023 209.552 85.5252 209.344 85.7388 209.104 85.6919ZM166.557 77.9315C166.479 77.9158 166.328 77.8065 166.266 77.7127 166.13 77.52 166.177 77.2804 166.37 77.145 167.036 76.6867 167.786 76.2388 168.438 75.8586 168.63 75.7231 168.87 75.77 169.005 75.9575 169.135 76.1502 169.089 76.395 168.901 76.5252 168.234 76.9888 167.5 77.3533 166.828 77.8169 166.719 77.9627 166.641 77.9471 166.557 77.9315ZM251.312 90.7231C251.151 90.6919 251.083 90.5981 251.021 90.4992 250.651 89.7648 250.286 89.0304 249.906 88.3794 249.771 88.1867 249.818 87.9471 250.089 87.8273 250.281 87.6971 250.521 87.7388 250.641 88.0148 251.089 88.7596 251.453 89.494 251.818 90.2283 251.953 90.4211 251.828 90.6502 251.635 90.7804 251.49 90.6711 251.396 90.7336 251.312 90.7231ZM170.781 75.369C170.698 75.3533 170.552 75.244 170.484 75.145 170.354 74.9575 170.401 74.7127 170.672 74.5981 171.406 74.2283 172.073 73.7648 172.807 73.4002 173 73.27 173.224 73.395 173.359 73.5825 173.49 73.7752 173.365 74.0044 173.172 74.1346 172.438 74.4992 171.703 74.869 171.036 75.3325 170.943 75.395 170.859 75.3794 170.781 75.369ZM209.328 80.8117C209.083 80.77 208.953 80.5773 208.995 80.3325 209.062 79.5148 209.208 78.7075 209.359 77.9002 209.401 77.6554 209.594 77.5252 209.833 77.5669 210.078 77.6138 210.208 77.8013 210.167 78.0461 210.016 78.8533 209.87 79.6606 209.802 80.4836 209.776 80.645 209.568 80.8533 209.328 80.8117ZM175.12 73.0721C174.958 73.0408 174.891 72.9471 174.823 72.8533 174.693 72.6606 174.818 72.4315 175.01 72.3013 175.745 71.9367 176.479 71.5669 177.292 71.2179 177.484 71.0825 177.708 71.2075 177.844 71.4002 177.974 71.5929 177.849 71.8169 177.661 71.9523 176.927 72.3169 176.203 72.6033 175.469 72.9679 175.297 73.02 175.198 73.0877 175.12 73.0721ZM248.844 86.4315C248.76 86.4211 248.599 86.3898 248.531 86.2961 248.073 85.6242 247.609 84.9575 247.052 84.3533 246.922 84.1658 246.964 83.9211 247.156 83.7908 247.344 83.6606 247.589 83.7023 247.719 83.895 248.26 84.5773 248.724 85.244 249.188 85.9106 249.318 86.1033 249.276 86.3481 249.083 86.4783 249.099 86.395 248.922 86.4471 248.844 86.4315ZM179.589 70.9679C179.427 70.9367 179.365 70.8429 179.297 70.7492 179.245 70.5721 179.292 70.3273 179.479 70.1971 180.198 69.9106 181.016 69.5617 181.812 69.2908 181.99 69.2388 182.234 69.2804 182.349 69.5513 182.401 69.7283 182.359 69.9731 182.089 70.0877 181.286 70.3586 180.568 70.645 179.833 71.0096 179.75 70.9992 179.672 70.9836 179.589 70.9679ZM245.797 82.5408C245.719 82.5252 245.635 82.5148 245.568 82.4158 245.292 82.1138 245.01 81.8169 244.734 81.5148 244.453 81.2127 244.177 80.9106 243.88 80.6919 243.75 80.4992 243.714 80.244 243.906 80.1138 244.094 79.9783 244.354 79.9419 244.484 80.1346 244.766 80.4367 245.042 80.7336 245.333 80.9575 245.615 81.2596 245.896 81.5565 246.172 81.8586 246.302 82.0513 246.339 82.3065 246.151 82.4419 246.052 82.5044 245.88 82.5565 245.797 82.5408ZM210.208 75.9679C210.13 75.9523 210.13 75.9523 210.208 75.9679 209.969 75.9263 209.833 75.7336 209.88 75.4888 210.026 74.6815 210.255 73.8898 210.484 73.0981 210.526 72.8586 210.797 72.7388 210.943 72.8481 211.188 72.895 211.302 73.1658 211.193 73.3117 210.969 74.1033 210.74 74.895 210.594 75.7023 210.562 75.8638 210.37 75.9992 210.208 75.9679ZM184.245 69.2283C184.083 69.2023 184.016 69.1086 183.964 68.9315 183.917 68.7544 184.042 68.5252 184.229 68.395 185.031 68.1242 185.828 67.8533 186.615 67.6606 186.792 67.6086 187.021 67.7336 187.151 67.9263 187.203 68.1033 187.078 68.3273 186.885 68.4627 186.089 68.7336 185.302 68.9211 184.583 69.2075 184.323 69.244 184.245 69.2283 184.245 69.2283ZM242.245 79.1398C242.167 79.1294 242.083 79.1138 242.021 79.0148 241.448 78.494 240.792 77.9575 240.141 77.4211 239.995 77.3117 239.958 77.0565 240.083 76.8273 240.193 76.6815 240.448 76.645 240.677 76.77 241.328 77.3065 241.984 77.8429 242.557 78.3638 242.703 78.4731 242.74 78.7336 242.615 78.9575 242.583 79.119 242.406 79.1711 242.245 79.1398ZM188.922 67.8325C188.76 67.8013 188.615 67.6919 188.562 67.5148 188.526 67.2596 188.635 67.1138 188.828 66.9783 189.609 66.7908 190.396 66.5981 191.26 66.4263 191.521 66.3898 191.667 66.4992 191.786 66.77 191.823 67.0252 191.708 67.1711 191.438 67.2908 190.651 67.4783 189.87 67.6711 189.083 67.8586 189 67.8481 189 67.8481 188.922 67.8325ZM211.578 71.2127C211.495 71.1971 211.495 71.1971 211.578 71.2127 211.255 71.1554 211.219 70.895 211.26 70.6554 211.573 69.8794 211.797 69.0825 212.109 68.3065 212.234 68.0773 212.406 68.0304 212.651 68.0721 212.88 68.1971 212.927 68.3742 212.885 68.6138 212.578 69.395 212.266 70.1711 212.052 70.8846 211.927 71.1086 211.74 71.244 211.578 71.2127ZM238.396 76.02C238.312 76.0044 238.312 76.0044 238.234 75.9888 237.568 75.5356 236.896 75.0825 236.229 74.6242 236.005 74.4992 235.969 74.244 236.094 74.0148 236.214 73.7856 236.474 73.7492 236.698 73.8742 237.37 74.3325 238.115 74.8013 238.786 75.2596 238.932 75.369 239.047 75.6398 238.844 75.8533 238.734 75.9992 238.557 76.0513 238.396 76.02ZM193.698 66.7856C193.536 66.7544 193.391 66.645 193.339 66.4679 193.302 66.2127 193.411 66.0669 193.672 66.0304 194.458 65.8377 195.307 65.744 196.161 65.6502 196.417 65.6138 196.547 65.8013 196.599 65.9783 196.635 66.2336 196.443 66.369 196.271 66.4211 195.5 66.5304 194.646 66.6242 193.859 66.8117 193.859 66.8117 193.781 66.8013 193.698 66.7856ZM234.292 73.3533C234.214 73.3377 234.214 73.3377 234.13 73.3221 233.448 72.9523 232.688 72.5617 232.005 72.1867 231.776 72.0617 231.74 71.8065 231.849 71.6554 231.974 71.4315 232.229 71.395 232.38 71.5044 233.141 71.895 233.823 72.27 234.573 72.7388 234.802 72.8638 234.839 73.119 234.724 73.2648 234.63 73.3325 234.453 73.3846 234.292 73.3533ZM198.583 66.0877C198.422 66.0617 198.271 65.9523 198.234 65.6919 198.198 65.4367 198.391 65.3065 198.568 65.2544 199.417 65.1606 200.172 65.1294 201.026 65.0356 201.281 64.9992 201.417 65.1867 201.453 65.4471 201.49 65.7023 201.297 65.8325 201.042 65.869 200.203 65.8846 199.432 65.994 198.583 66.0877 198.661 66.1033 198.661 66.1033 198.583 66.0877ZM229.859 71.1294C229.859 71.1294 229.781 71.1138 229.781 71.1138 229 70.8065 228.318 70.4315 227.542 70.119 227.312 69.994 227.266 69.8221 227.307 69.5773 227.432 69.3481 227.609 69.3013 227.849 69.3429 228.63 69.6502 229.406 69.9627 230.089 70.3377 230.318 70.4575 230.37 70.6346 230.323 70.8794 230.292 71.0408 230.021 71.1554 229.859 71.1294ZM203.552 65.8273C203.391 65.8013 203.255 65.6086 203.203 65.4315 203.167 65.1763 203.359 65.0408 203.615 65.0044 204.453 64.994 205.292 64.9783 206.115 65.0461 206.354 65.0877 206.5 65.1971 206.536 65.4575 206.495 65.6971 206.385 65.8429 206.125 65.8794 205.292 65.895 204.469 65.8273 203.714 65.8586 203.552 65.8273 203.552 65.8273 203.552 65.8273ZM225.276 69.2908C224.417 68.9679 223.703 68.7544 222.911 68.5252 222.672 68.4836 222.552 68.2075 222.677 67.9836 222.719 67.7388 222.995 67.6242 223.219 67.7492 224.01 67.9783 224.792 68.2856 225.583 68.5148 225.823 68.5565 225.943 68.8273 225.818 69.0565 225.708 69.2023 225.516 69.3325 225.276 69.2908ZM208.458 65.8898C208.297 65.8586 208.089 65.6554 208.115 65.494 208.161 65.2492 208.349 65.119 208.526 65.0669 209.349 65.1346 210.172 65.2023 210.995 65.27 211.234 65.3117 211.37 65.5044 211.323 65.744 211.281 65.9888 211.089 66.119 210.844 66.0773 210.104 66.0252 209.281 65.9575 208.458 65.8898ZM213.417 66.6294C213.417 66.6294 213.333 66.6138 213.333 66.6138 213.188 66.5044 213.057 66.3117 213.083 66.1502 213.021 66.0565 213.031 65.9731 213.047 65.895 213.078 65.7336 213.188 65.5825 213.365 65.5356 213.63 64.9992 213.906 64.3794 214.255 63.8586 214.38 63.6346 214.635 63.5981 214.781 63.7075 215.01 63.8325 215.047 64.0877 214.938 64.2336 214.688 64.6919 214.438 65.145 214.172 65.6815 214.734 65.7856 215.302 65.8846 215.865 65.9888 216.109 66.0356 216.24 66.2231 216.198 66.4679 216.151 66.7075 215.964 66.8429 215.719 66.7961 215.073 66.6815 214.427 66.5617 213.781 66.4419 213.75 66.6033 213.578 66.6554 213.417 66.6294ZM220.615 67.8586C219.823 67.6294 219.016 67.4836 218.224 67.2544 217.979 67.2075 217.849 67.02 217.891 66.7752 217.938 66.5356 218.125 66.4002 218.37 66.4471 219.177 66.5929 219.969 66.8221 220.76 67.0513 221.005 67.0929 221.12 67.3638 221.094 67.5252 221.047 67.77 220.776 67.8846 220.615 67.8586ZM215.786 62.3065C215.708 62.2908 215.708 62.2908 215.625 62.2752 215.401 62.1502 215.365 61.895 215.474 61.7492 215.927 61.0773 216.396 60.3325 216.854 59.6658 216.979 59.4367 217.234 59.4002 217.464 59.5252 217.693 59.6502 217.729 59.9054 217.604 60.1346 217.146 60.8013 216.693 61.4679 216.318 62.1502 216.047 62.27 215.948 62.3325 215.786 62.3065ZM218.521 58.3013C218.438 58.2856 218.359 58.27 218.375 58.1919 218.229 58.0773 218.193 57.8221 218.318 57.5929 218.849 56.9419 219.385 56.2908 219.922 55.6346 220.031 55.4888 220.292 55.4523 220.521 55.5773 220.667 55.6867 220.703 55.9471 220.578 56.1711 220.057 56.744 219.521 57.395 219.062 58.0669 218.859 58.2752 218.682 58.3273 218.521 58.3013ZM221.708 54.5461C221.625 54.5304 221.547 54.5148 221.479 54.4211 221.349 54.2283 221.312 53.9731 221.505 53.8377 221.802 53.5617 222.026 53.2648 222.312 53.0669 222.625 52.7075 222.927 52.4315 223.307 52.1658 223.5 52.0356 223.755 51.9992 223.891 52.1867 224.021 52.3794 224.057 52.6346 223.865 52.77 223.568 53.0461 223.25 53.4054 222.87 53.6711 222.568 53.9471 222.359 54.1606 222.062 54.4419 222.047 54.52 221.87 54.5721 221.708 54.5461ZM225.323 51.1971C225.24 51.1815 225.161 51.1711 225.094 51.0721 224.964 50.8846 225.005 50.6398 225.115 50.494 225.719 49.9367 226.385 49.4731 227.068 48.9315 227.26 48.8013 227.5 48.8429 227.635 49.0356 227.766 49.2283 227.724 49.4679 227.531 49.5981 226.865 50.0617 226.26 50.619 225.656 51.1763 225.578 51.1606 225.484 51.2283 225.323 51.1971ZM229.214 48.1554C229.13 48.1398 228.969 48.1086 228.906 48.0148 228.771 47.8221 228.818 47.5825 229.005 47.4523 229.677 46.9888 230.344 46.5252 231.094 46.0773 231.281 45.9471 231.526 45.9888 231.656 46.1815 231.792 46.3742 231.745 46.6138 231.557 46.7492 230.885 47.2075 230.219 47.6711 229.552 48.1346 229.469 48.119 229.375 48.1867 229.214 48.1554ZM233.37 45.494C233.286 45.4783 233.141 45.369 233.073 45.2752 232.943 45.0825 232.99 44.8377 233.26 44.7231 234.005 44.2752 234.661 43.895 235.396 43.5252 235.589 43.395 235.812 43.52 235.948 43.7127 236.078 43.9002 235.953 44.1294 235.76 44.2596 235.026 44.6294 234.292 44.994 233.625 45.4575 233.609 45.5356 233.531 45.5252 233.37 45.494ZM237.786 43.2127C237.625 43.1815 237.562 43.0877 237.495 42.994 237.365 42.8013 237.49 42.5721 237.677 42.4419 238.411 42.0773 239.146 41.7075 239.948 41.4367 240.141 41.3065 240.365 41.4315 240.5 41.6242 240.63 41.8117 240.505 42.0408 240.312 42.1711 239.578 42.5408 238.859 42.8273 238.047 43.1763 237.948 43.244 237.87 43.2283 237.786 43.2127ZM242.312 41.2856C242.151 41.2544 242.083 41.1606 242.016 41.0669 241.964 40.8898 242.01 40.645 242.281 40.5304 243.083 40.2596 243.802 39.9731 244.599 39.7023 244.776 39.6502 245.021 39.6919 245.135 39.9679 245.188 40.1398 245.146 40.3846 244.875 40.4992 244.073 40.77 243.354 41.0565 242.552 41.3273 242.391 41.3013 242.391 41.3013 242.312 41.2856ZM246.948 39.6294C246.786 39.5981 246.641 39.4888 246.672 39.3273 246.62 39.1502 246.745 38.9263 246.938 38.7908 247.734 38.52 248.521 38.3325 249.323 38.0617 249.5 38.0096 249.724 38.1346 249.859 38.3221 249.911 38.4992 249.786 38.7283 249.594 38.8586 248.807 39.0513 248.005 39.3221 247.224 39.5096 247.031 39.645 247.031 39.645 246.948 39.6294ZM251.693 38.3273C251.531 38.2961 251.385 38.1867 251.333 38.0096 251.297 37.7544 251.406 37.6086 251.677 37.4888 252.464 37.2961 253.25 37.1086 254.115 36.9315 254.375 36.895 254.521 37.0044 254.635 37.2752 254.672 37.5356 254.562 37.6815 254.292 37.7961 253.505 37.9888 252.719 38.1815 251.932 38.369 251.771 38.3377 251.771 38.3377 251.693 38.3273ZM256.536 37.3742C256.375 37.3429 256.229 37.2336 256.177 37.0565 256.141 36.8013 256.25 36.6554 256.51 36.619 257.292 36.4263 258.146 36.3325 258.917 36.2231 259.172 36.1867 259.307 36.3794 259.354 36.5513 259.391 36.8117 259.203 36.9419 259.026 36.994 258.255 37.1033 257.391 37.2804 256.62 37.3898 256.62 37.3898 256.536 37.3742 256.536 37.3742ZM261.354 36.5825C261.193 36.5565 261.047 36.4419 261.01 36.1867 260.974 35.9315 261.161 35.7961 261.339 35.7492 262.193 35.6502 262.958 35.5408 263.812 35.4471 264.068 35.4106 264.203 35.6033 264.25 35.7804 264.292 36.0356 264.099 36.1658 263.922 36.2179 263.073 36.3117 262.302 36.4211 261.464 36.4367 261.432 36.5981 261.432 36.5981 261.354 36.5825ZM266.271 36.145C266.109 36.119 265.979 35.9263 265.927 35.7492 265.891 35.494 266.078 35.3586 266.339 35.3221 267.172 35.3117 268.026 35.2127 268.781 35.1867 269.036 35.1502 269.172 35.3429 269.208 35.5981 269.245 35.8533 269.052 35.9888 268.797 36.0252 267.958 36.0356 267.188 36.145 266.354 36.1606 266.354 36.1606 266.354 36.1606 266.271 36.145ZM271.224 35.9679C271.062 35.9367 270.932 35.744 270.88 35.5669 270.844 35.3117 271.036 35.1815 271.292 35.145 271.63 35.1242 271.969 35.0981 272.208 35.145 272.708 35.1502 273.208 35.1606 273.708 35.1658 273.948 35.2127 274.094 35.3221 274.13 35.5773 274.167 35.8377 273.979 35.9679 273.719 36.0044 273.224 35.994 272.724 35.9888 272.224 35.9783 271.901 35.9211 271.646 35.9575 271.224 35.9679 271.307 35.9783 271.224 35.9679 271.224 35.9679ZM276.151 35.9471C275.99 35.9158 275.776 35.7127 275.807 35.5513 275.849 35.3065 275.958 35.1606 276.219 35.1242 277.052 35.1086 277.875 35.1763 278.698 35.244 278.938 35.2856 279.073 35.4783 279.125 35.6554 279.177 35.8325 278.891 36.0304 278.714 36.0825 277.891 36.0148 277.052 36.0252 276.151 35.9471 276.229 35.9627 276.151 35.9471 276.151 35.9471ZM281.099 36.2648C280.854 36.2231 280.724 36.0304 280.755 35.869 280.797 35.6242 280.99 35.494 281.161 35.4419 281.984 35.5096 282.807 35.5773 283.63 35.6398 283.87 35.6867 284.005 35.8794 283.974 36.0408 283.932 36.2804 283.74 36.4106 283.578 36.3846 282.755 36.3169 281.932 36.2492 281.099 36.2648ZM340.604 46.619 339.312 46.3794C339.068 46.3377 338.938 46.145 338.984 45.9054 339.026 45.6606 339.219 45.5304 339.458 45.5721L340.75 45.8117 341.88 46.0148 341.734 46.8221ZM344.156 47.2648C343.911 47.2231 343.781 47.0304 343.828 46.7856 343.87 46.5461 344.062 46.4158 344.302 46.4575L346.724 46.9002C346.969 46.9419 347.099 47.1346 347.057 47.3742 347.01 47.619 346.823 47.7492 346.578 47.7075ZM336.891 45.9419C336.083 45.7908 335.276 45.645 334.469 45.4992 334.224 45.4523 334.094 45.2648 334.141 45.02 334.182 44.7804 334.375 44.645 334.615 44.6919 335.422 44.8377 336.229 44.9836 337.036 45.1346 337.281 45.1763 337.411 45.369 337.37 45.6086 337.323 45.8533 337.13 45.9836 336.891 45.9419ZM285.948 36.6502C285.708 36.6033 285.573 36.4158 285.62 36.1711 285.661 35.9315 285.854 35.7961 286.094 35.8429 286.917 35.9106 287.74 35.9731 288.547 36.1242 288.792 36.1658 288.922 36.3586 288.875 36.5981 288.833 36.8429 288.641 36.9731 288.401 36.9315 287.672 36.7961 286.854 36.7283 285.948 36.6502 286.031 36.6658 285.948 36.6502 285.948 36.6502ZM349.016 48.0669C348.771 48.0252 348.641 47.8325 348.682 47.5877 348.729 47.3481 348.922 47.2179 349.161 47.2596 349.969 47.4054 350.776 47.5565 351.583 47.7023 351.828 47.744 351.958 47.9367 351.917 48.1815 351.87 48.4211 351.677 48.5513 351.438 48.5096 350.63 48.3638 349.823 48.2127 349.016 48.0669ZM332.062 44.9731C331.255 44.8273 330.448 44.6815 329.641 44.5356 329.396 44.4888 329.266 44.3013 329.307 44.0565 329.354 43.8169 329.547 43.6815 329.786 43.7283 330.594 43.8742 331.401 44.02 332.208 44.1658 332.453 44.2127 332.583 44.4054 332.536 44.645 332.495 44.8898 332.224 45.0044 332.062 44.9731ZM353.859 48.9523C353.615 48.9054 353.484 48.7179 353.531 48.4731 353.573 48.2336 353.766 48.0981 354.005 48.145 354.812 48.2908 355.62 48.4367 356.443 48.5044 356.682 48.5513 356.818 48.7388 356.771 48.9836 356.729 49.2231 356.536 49.3586 356.297 49.3117 355.49 49.1658 354.682 49.0148 353.859 48.9523ZM327.234 44.0096 324.823 43.4888C324.583 43.4471 324.453 43.2544 324.495 43.0096 324.536 42.77 324.729 42.6398 324.974 42.6815L327.38 43.2023C327.62 43.2492 327.755 43.4367 327.708 43.6815 327.667 43.9211 327.396 44.0408 327.234 44.0096ZM358.734 49.6711C358.49 49.6294 358.359 49.4367 358.401 49.1971 358.448 48.9523 358.635 48.8221 358.88 48.8638L361.318 49.2283C361.557 49.27 361.693 49.4627 361.646 49.7023 361.604 49.9471 361.411 50.0773 361.167 50.0356ZM322.401 43.0461 319.995 42.5252C319.755 42.4783 319.62 42.2908 319.667 42.0461 319.708 41.8065 319.901 41.6711 320.141 41.7179L322.552 42.2388C322.792 42.2856 322.922 42.4731 322.88 42.7179 322.839 42.9575 322.562 43.0773 322.401 43.0461ZM290.854 37.2075C290.609 37.1658 290.479 36.9731 290.521 36.7336 290.568 36.4888 290.755 36.3586 291 36.4002 291.823 36.4679 292.63 36.6138 293.438 36.7648 293.677 36.8065 293.807 36.9992 293.766 37.2388 293.724 37.4836 293.531 37.6138 293.286 37.5721 292.562 37.4367 291.755 37.2908 290.854 37.2075ZM317.573 42.0825C317.573 42.0825 317.495 42.0669 317.573 42.0825L315.167 41.5617C314.922 41.5148 314.792 41.3273 314.839 41.0825 314.88 40.8429 315.073 40.7075 315.312 40.7544L317.719 41.2752C317.964 41.3221 318.094 41.5096 318.052 41.7544 317.927 41.9783 317.734 42.1138 317.573 42.0825ZM363.589 50.4731C363.349 50.4315 363.219 50.2388 363.26 49.9992 363.307 49.7544 363.495 49.6242 363.74 49.6658L366.177 50.0304C366.417 50.0721 366.547 50.2648 366.505 50.5044 366.458 50.7492 366.271 50.8794 366.026 50.8377ZM312.76 41.0356C312.677 41.0252 312.677 41.0252 312.76 41.0356 311.953 40.8898 311.146 40.744 310.354 40.5148 310.109 40.4731 309.979 40.2804 310.021 40.0408 310.068 39.7961 310.255 39.6658 310.5 39.7075 311.307 39.8533 312.115 40.0044 312.906 40.2336 313.151 40.2752 313.281 40.4679 313.234 40.7075 313.109 40.9367 312.922 41.0669 312.76 41.0356ZM295.724 37.9315C295.484 37.8898 295.349 37.6971 295.396 37.4523 295.438 37.2127 295.63 37.0825 295.87 37.1242 296.677 37.27 297.484 37.4211 298.307 37.4836 298.469 37.5148 298.682 37.7179 298.641 37.9627 298.594 38.2023 298.406 38.3377 298.161 38.2908 297.354 38.145 296.547 37.9992 295.724 37.9315ZM368.479 51.119C368.234 51.0721 368.104 50.8794 368.151 50.6398 368.193 50.395 368.385 50.2648 368.625 50.3117 369.432 50.4575 370.255 50.5252 371.062 50.6711 371.307 50.7127 371.438 50.9054 371.391 51.1502 371.349 51.3898 371.156 51.52 370.917 51.4783 370.094 51.4106 369.286 51.2648 368.479 51.119ZM307.849 40.0617C307.042 39.9106 306.234 39.7648 305.427 39.619 305.188 39.5721 305.052 39.3846 305.099 39.1398 305.141 38.9002 305.333 38.7648 305.573 38.8117 306.38 38.9575 307.188 39.1033 307.995 39.2544 308.24 39.2961 308.37 39.4888 308.328 39.7283 308.281 39.9731 308.094 40.1033 307.849 40.0617ZM300.583 38.7336C300.344 38.6919 300.208 38.4992 300.255 38.2544 300.297 38.0148 300.49 37.8846 300.729 37.9263 301.375 38.0461 302.021 38.1606 302.667 38.2804L303.151 38.369C303.396 38.4106 303.526 38.6033 303.484 38.8481 303.438 39.0877 303.25 39.2179 303.005 39.1763L302.521 39.0877C301.875 38.9679 301.229 38.8533 300.583 38.7336ZM373.354 51.8377C373.109 51.7961 372.979 51.6033 373.021 51.3638 373.068 51.119 373.255 50.9888 373.5 51.0304 374.307 51.1763 375.13 51.244 375.938 51.395 376.177 51.4367 376.312 51.6294 376.266 51.869 376.224 52.1138 376.031 52.244 375.786 52.2023 374.979 52.0513 374.172 51.9054 373.354 51.8377ZM378.24 52.4783C378 52.4367 377.865 52.244 377.911 52.0044 377.953 51.7596 378.146 51.6294 378.385 51.6711L380.839 51.9523C381.083 51.9992 381.214 52.1867 381.167 52.4315 381.125 52.6711 380.932 52.8065 380.693 52.7596ZM383.13 53.119C382.885 53.0773 382.755 52.8846 382.797 52.645 382.844 52.4002 383.031 52.27 383.276 52.3117 384.099 52.3794 384.906 52.5252 385.729 52.5929 385.969 52.6398 386.099 52.8273 386.057 53.0721 386.01 53.3117 385.823 53.4471 385.578 53.4002 384.771 53.2544 383.948 53.1867 383.13 53.119ZM388.031 53.6815C387.786 53.6398 387.656 53.4471 387.703 53.2023 387.745 52.9627 387.938 52.8325 388.177 52.8742 389 52.9419 389.807 53.0877 390.63 53.1554 390.87 53.1971 391.005 53.3898 390.958 53.6346 390.917 53.8742 390.724 54.0044 390.484 53.9627 389.677 53.8169 388.854 53.7492 388.031 53.6815ZM392.932 54.244C392.693 54.1971 392.557 54.0096 392.604 53.7648 392.646 53.5252 392.839 53.3898 393.083 53.4367L395.531 53.7127C395.776 53.7596 395.906 53.9523 395.865 54.1919 395.818 54.4367 395.625 54.5669 395.385 54.52ZM397.849 54.7231C397.609 54.6763 397.479 54.4888 397.521 54.244 397.568 54.0044 397.755 53.869 398 53.9158L400.448 54.1971C400.609 54.2231 400.823 54.4315 400.781 54.6711 400.734 54.9158 400.547 55.0461 400.302 55.0044ZM402.771 55.2023C402.526 55.1554 402.396 54.9679 402.438 54.7231 402.484 54.4836 402.672 54.3481 402.917 54.395 403.74 54.4627 404.562 54.5252 405.38 54.5929 405.625 54.6398 405.755 54.8273 405.729 54.9888 405.682 55.2336 405.49 55.3638 405.328 55.3377 404.411 55.3325 403.589 55.27 402.771 55.2023ZM407.62 55.5877C407.458 55.5565 407.245 55.3533 407.276 55.1919 407.318 54.9471 407.51 54.8169 407.688 54.7648 408.51 54.8325 409.344 54.8169 410.167 54.8846 410.411 54.9263 410.557 55.0356 410.594 55.2961 410.547 55.5356 410.438 55.6815 410.182 55.7179 409.359 55.6554 408.521 55.6658 407.62 55.5877 407.703 55.6033 407.703 55.6033 407.62 55.5877ZM412.599 55.744C412.438 55.7127 412.302 55.5252 412.25 55.3481 412.214 55.0877 412.406 54.9575 412.661 54.9211 413.5 54.9054 414.339 54.895 415.094 54.8638 415.349 54.8273 415.479 55.02 415.516 55.2752 415.552 55.5304 415.365 55.6658 415.109 55.7023 414.271 55.7127 413.516 55.744 412.599 55.744ZM417.484 55.4679C417.323 55.4367 417.177 55.3273 417.141 55.0721 417.104 54.8117 417.297 54.6815 417.469 54.6294 418.323 54.5356 419.094 54.4263 419.865 54.3169 420.12 54.2804 420.266 54.3898 420.302 54.645 420.339 54.9054 420.229 55.0513 419.974 55.0877 419.203 55.1971 418.349 55.2908 417.5 55.3846 417.568 55.4836 417.568 55.4836 417.484 55.4679ZM422.38 54.6919C422.219 54.6606 422.073 54.5513 422.021 54.3742 421.984 54.119 422.094 53.9731 422.365 53.8533 423.151 53.6658 423.938 53.4731 424.74 53.2023 424.917 53.1502 425.141 53.2752 425.276 53.4679 425.323 53.645 425.198 53.869 425.01 54.0044 424.208 54.2752 423.422 54.4627 422.557 54.6398 422.464 54.7075 422.464 54.7075 422.38 54.6919ZM427.057 53.2908C426.896 53.2648 426.828 53.1658 426.766 53.0721 426.714 52.895 426.755 52.6554 427.026 52.5356 427.75 52.2492 428.562 51.9002 429.297 51.5304 429.49 51.4002 429.714 51.5252 429.849 51.7179 429.979 51.9054 429.854 52.1346 429.661 52.2648 428.927 52.6346 428.115 52.9836 427.396 53.27 427.219 53.3221 427.141 53.3065 427.057 53.2908ZM431.464 51.0929C431.38 51.0773 431.234 50.9679 431.167 50.8742 431.036 50.6815 431.083 50.4419 431.271 50.3065 431.943 49.8481 432.688 49.4002 433.276 48.9211 433.469 48.7908 433.708 48.8325 433.844 49.0252 433.974 49.2179 433.932 49.4575 433.74 49.5877 433.073 50.0513 432.385 50.5929 431.651 50.9627 431.703 51.1398 431.625 51.1242 431.464 51.0929ZM435.422 48.145C435.339 48.1294 435.26 48.1138 435.193 48.02 435.062 47.8273 435.026 47.5721 435.214 47.4419 435.818 46.8846 436.339 46.3117 436.875 45.6554 436.984 45.5096 437.24 45.4731 437.469 45.5981 437.615 45.7075 437.651 45.9679 437.526 46.1919 436.99 46.8481 436.391 47.4054 435.771 48.0408 435.677 48.1086 435.5 48.1606 435.422 48.145Z" fill="#0E0E0E"/></g></g></g><g><g clip-path="url(#clip5)"><g clip-path="url(#clip6)"><path d="M438.625 44.3065C438.542 44.2908 438.542 44.2908 438.464 44.2804 438.234 44.1554 438.198 43.895 438.323 43.6711 438.542 43.3742 438.776 42.9992 438.932 42.6138 439.057 42.3846 439.312 42.3481 439.458 42.4575 439.688 42.5825 439.724 42.8429 439.615 42.9888 439.38 43.3638 439.224 43.7492 439.005 44.0461 438.958 44.2856 438.786 44.3377 438.625 44.3065Z" fill="#0E0E0E"/></g></g></g><g clip-path="url(#clip7)"><g clip-path="url(#clip8)"><g clip-path="url(#clip9)"><path d="M301.722 34.1375C300.49 33.9705 299.261 33.6441 297.95 33.4809 298.193 32.9865 298.606 32.4929 298.85 32.0036 299.344 31.8394 300.245 31.7546 300.818 31.6765 301.475 31.5937 301.475 31.5937 302.377 31.4292 302.952 29.2119 303.941 26.9986 305.332 25.1936 301.721 24.2904 298.11 23.8797 294.499 23.8765 294.504 23.4679 294.34 22.9738 294.335 22.4823 296.141 21.994 297.865 21.579 299.753 21.2505 302.628 20.8427 305.496 20.4307 308.37 20.0229 309.271 17.5609 310.997 15.6738 313.373 14.2768M302.953 34.8766C303.773 35.8601 304.593 36.8435 305.413 37.8269 305.662 37.3367 305.991 36.7631 306.235 36.2687 306.071 35.7745 305.826 34.9561 305.578 34.3819 305.331 33.8076 305.331 33.8076 305.007 32.9031 306.644 31.3444 308.122 29.3754 308.945 27.24 311.569 29.8692 313.7 32.8211 315.508 35.9431 315.918 35.7785 316.412 35.6142 316.737 35.3644 316.245 33.5641 315.755 31.8375 315.097 30.0304 314.032 27.3234 312.966 24.6165 311.9 21.9892 313.537 20.0229 314.36 17.4799 314.357 14.8544M302.953 34.8766C302.542 34.6286 302.132 34.3805 301.722 34.1375M314.357 14.8544C314.359 14.6899 314.198 14.444 314.029 14.3584 313.865 14.277 313.623 14.1942 313.373 14.2768M312.716 14.852 301.638 34.0523 303.037 34.8719 314.115 15.6716ZM312.881 14.769C312.638 15.1786 312.717 15.7571 313.048 15.9191 313.374 16.082 313.868 15.9177 314.111 15.5081 314.359 15.0975 314.276 14.5251 313.95 14.3622 313.623 14.1942 313.129 14.3584 312.881 14.769Z" stroke="#000000" stroke-width="0.0992886" stroke-linecap="round" stroke-linejoin="round" stroke-miterlimit="10" fill="#0E0E0E" transform="matrix(0.983848 0.179432 -0.179417 0.983773 152.115 -50.0668)"/></g></g></g><g><g clip-path="url(#clip10)"><g clip-path="url(#clip11)"><path d="M118.583 162.603C118.333 163.973 117.094 164.833 115.719 164.583 114.349 164.333 113.49 163.093 113.74 161.718 113.99 160.348 115.229 159.489 116.604 159.739 117.974 159.989 118.833 161.228 118.583 162.603ZM467.167 7.6398C465.792 7.3898 464.552 8.24918 464.302 9.62418 464.052 10.994 464.911 12.2336 466.281 12.4836 467.656 12.7336 468.896 11.8794 469.146 10.5044 469.396 9.13459 468.458 7.87938 467.167 7.6398Z" fill="#0E0E0E"/></g></g></g><g clip-path="url(#clip12)"><g clip-path="url(#clip13)"><g clip-path="url(#clip14)"><path d="M5.16938 215.235C5.1692 216.628 4.104 217.696 2.70657 217.696 1.31425 217.696 0.2465 216.631 0.245743 215.233 0.245922 213.841 1.31112 212.773 2.70856 212.772 4.10087 212.772 5.16862 213.838 5.16938 215.235ZM320.269 0.244048C318.871 0.244805 317.806 1.31264 317.807 2.71018 317.807 4.1026 318.875 5.16788 320.267 5.16806 321.664 5.1673 322.73 4.10459 322.73 2.70705 322.73 1.31463 321.582 0.247995 320.269 0.244048Z" stroke="#000000" stroke-width="0.455415" stroke-linecap="round" stroke-miterlimit="10" fill="none" transform="matrix(0.983848 0.179432 -0.179417 0.983773 152.115 -50.0668)"/></g></g></g></g></svg>