<svg width="1026" height="970" xmlns="http://www.w3.org/2000/svg" xmlns:xlink="http://www.w3.org/1999/xlink" xml:space="preserve" overflow="hidden"><defs><clipPath id="clip0"><rect x="682" y="638" width="1026" height="970"/></clipPath></defs><g clip-path="url(#clip0)" transform="translate(-682 -638)"><path d="M682 1123C682 855.142 911.678 638 1195 638 1478.32 638 1708 855.142 1708 1123 1708 1390.86 1478.32 1608 1195 1608 911.678 1608 682 1390.86 682 1123Z" fill="#FFFFFF" fill-rule="evenodd"/><path d="M986.566 783.542C985.016 773.794 991.662 764.634 1001.41 763.084L1072.01 751.858C1081.76 750.308 1090.92 756.954 1092.47 766.703L1152.92 1146.88C1154.47 1156.63 1147.83 1165.79 1138.08 1167.34L1067.47 1178.56C1057.72 1180.11 1048.56 1173.47 1047.01 1163.72Z" stroke="#FFFFFF" stroke-width="4.58333" stroke-miterlimit="8" fill-rule="evenodd"/><path d="M1222.85 752.299C1224.72 742.608 1234.1 736.275 1243.79 738.152L1313.98 751.753C1323.67 753.631 1330 763.009 1328.13 772.7L1254.89 1150.62C1253.01 1160.31 1243.63 1166.65 1233.94 1164.77L1163.76 1151.17C1154.07 1149.29 1147.73 1139.91 1149.61 1130.22Z" stroke="#FFFFFF" stroke-width="4.58333" stroke-miterlimit="8" fill-rule="evenodd"/><path d="M1034.5 1166.33C1034.5 1134.39 1060.39 1108.5 1092.33 1108.5L1347.67 1108.5C1379.61 1108.5 1405.5 1134.39 1405.5 1166.33L1405.5 1397.67C1405.5 1429.61 1379.61 1455.5 1347.67 1455.5L1092.33 1455.5C1060.39 1455.5 1034.5 1429.61 1034.5 1397.67Z" stroke="#000000" stroke-width="4.58333" stroke-miterlimit="8" fill-rule="evenodd"/><path d="M176 79.7403C249.333-106.32 535.333 79.7403 176 318.961-183.333 79.7403 102.667-106.32 176 79.7403Z" stroke="#000000" stroke-width="4.58333" stroke-miterlimit="8" fill-rule="evenodd" transform="matrix(0.806161 -0.591697 -0.591697 -0.806161 1088.23 1489.38)"/><path d="M1354.93 1107.02C1358.32 1097.75 1368.59 1092.99 1377.86 1096.39L1444.98 1120.99C1454.25 1124.39 1459.01 1134.66 1455.61 1143.93L1353.81 1421.68C1350.41 1430.94 1340.15 1435.7 1330.88 1432.31L1263.75 1407.7C1254.49 1404.31 1249.73 1394.04 1253.12 1384.77Z" stroke="#FFFFFF" stroke-width="4.58333" stroke-miterlimit="8" fill-rule="evenodd"/><path d="M1257.76 1085.38C1259.64 1075.69 1269.02 1069.35 1278.71 1071.23L1348.89 1084.83C1358.58 1086.71 1364.92 1096.09 1363.04 1105.78L1310.73 1375.72C1308.85 1385.42 1299.47 1391.75 1289.78 1389.87L1219.6 1376.27C1209.9 1374.39 1203.57 1365.01 1205.45 1355.32Z" stroke="#FFFFFF" stroke-width="4.58333" stroke-miterlimit="8" fill-rule="evenodd"/><path d="M1325.67 1142.5C1335.52 1142.5 1343.5 1150.48 1343.5 1160.33L1343.5 1231.67C1343.5 1241.52 1335.52 1249.5 1325.67 1249.5L1050.33 1249.5C1040.48 1249.5 1032.5 1241.52 1032.5 1231.67L1032.5 1160.33C1032.5 1150.48 1040.48 1142.5 1050.33 1142.5Z" stroke="#FFFFFF" stroke-width="4.58333" stroke-miterlimit="8" fill-rule="evenodd"/></g></svg>